%TF.GenerationSoftware,KiCad,Pcbnew,10.0.5*%
%TF.CreationDate,2026-07-31T11:09:00+02:00*%
%TF.ProjectId,IR_Spoke_Sensor_R4_2L,49525f53-706f-46b6-955f-53656e736f72,R4*%
%TF.SameCoordinates,Original*%
%TF.FileFunction,Other,User*%
%FSLAX46Y46*%
G04 Gerber Fmt 4.6, Leading zero omitted, Abs format (unit mm)*
G04 Created by KiCad (PCBNEW 10.0.5) date 2026-07-31 11:09:00*
%MOMM*%
%LPD*%
G01*
G04 APERTURE LIST*
%ADD10C,0.050000*%
G04 APERTURE END LIST*
%TO.C,R1*%
D10*
X150020000Y-127520000D02*
X151480000Y-127520000D01*
X151480000Y-130480000D01*
X150020000Y-130480000D01*
X150020000Y-127520000D01*
%TO.C,U2*%
X149825000Y-108220000D02*
X149995000Y-108220000D01*
X149825000Y-109680000D02*
X149825000Y-108220000D01*
X149995000Y-107500000D02*
X151855000Y-107500000D01*
X149995000Y-108220000D02*
X149995000Y-107500000D01*
X149995000Y-109680000D02*
X149825000Y-109680000D01*
X149995000Y-110400000D02*
X149995000Y-109680000D01*
X150555000Y-109680000D02*
X150555000Y-110400000D01*
X150555000Y-110400000D02*
X149995000Y-110400000D01*
X151295000Y-109680000D02*
X150555000Y-109680000D01*
X151295000Y-110400000D02*
X151295000Y-109680000D01*
X151855000Y-107500000D02*
X151855000Y-108220000D01*
X151855000Y-108220000D02*
X152025000Y-108220000D01*
X151855000Y-109680000D02*
X151855000Y-110400000D01*
X151855000Y-110400000D02*
X151295000Y-110400000D01*
X152025000Y-108220000D02*
X152025000Y-109680000D01*
X152025000Y-109680000D02*
X151855000Y-109680000D01*
%TO.C,C4*%
X151665000Y-103040000D02*
X152585000Y-103040000D01*
X152585000Y-104860000D01*
X151665000Y-104860000D01*
X151665000Y-103040000D01*
%TO.C,MH1*%
X142600000Y-131250000D02*
G75*
G02*
X137400000Y-131250000I-2600000J0D01*
G01*
X137400000Y-131250000D02*
G75*
G02*
X142600000Y-131250000I2600000J0D01*
G01*
%TO.C,R6*%
X146695000Y-101770000D02*
X148155000Y-101770000D01*
X148155000Y-104730000D01*
X146695000Y-104730000D01*
X146695000Y-101770000D01*
%TO.C,R10*%
X150395000Y-106080000D02*
X152255000Y-106080000D01*
X152255000Y-107020000D01*
X150395000Y-107020000D01*
X150395000Y-106080000D01*
%TO.C,R3*%
X143195000Y-100970000D02*
X144655000Y-100970000D01*
X144655000Y-103930000D01*
X143195000Y-103930000D01*
X143195000Y-100970000D01*
%TO.C,U1*%
X148575000Y-99620000D02*
X149575000Y-99620000D01*
X148575000Y-102580000D02*
X148575000Y-99620000D01*
X149575000Y-99400000D02*
X151675000Y-99400000D01*
X149575000Y-99620000D02*
X149575000Y-99400000D01*
X149575000Y-102580000D02*
X148575000Y-102580000D01*
X149575000Y-102800000D02*
X149575000Y-102580000D01*
X151675000Y-99400000D02*
X151675000Y-99620000D01*
X151675000Y-99620000D02*
X152675000Y-99620000D01*
X151675000Y-102580000D02*
X151675000Y-102800000D01*
X151675000Y-102800000D02*
X149575000Y-102800000D01*
X152675000Y-99620000D02*
X152675000Y-102580000D01*
X152675000Y-102580000D02*
X151675000Y-102580000D01*
%TO.C,C1*%
X144895000Y-104970000D02*
X146355000Y-104970000D01*
X146355000Y-107930000D01*
X144895000Y-107930000D01*
X144895000Y-104970000D01*
%TO.C,J4*%
X143945000Y-121750000D02*
X145955000Y-121750000D01*
X143945000Y-125450000D02*
X143945000Y-121750000D01*
X144045000Y-125450000D02*
X143945000Y-125450000D01*
X144045000Y-127050000D02*
X144045000Y-125450000D01*
X145955000Y-121750000D02*
X145955000Y-122000000D01*
X145955000Y-122000000D02*
X148895000Y-122000000D01*
X145995000Y-127050000D02*
X144045000Y-127050000D01*
X145995000Y-128150000D02*
X145995000Y-127050000D01*
X148855000Y-127050000D02*
X148855000Y-128150000D01*
X148855000Y-128150000D02*
X145995000Y-128150000D01*
X148895000Y-121750000D02*
X150905000Y-121750000D01*
X148895000Y-122000000D02*
X148895000Y-121750000D01*
X150805000Y-125450000D02*
X150805000Y-127050000D01*
X150805000Y-127050000D02*
X148855000Y-127050000D01*
X150905000Y-121750000D02*
X150905000Y-125450000D01*
X150905000Y-125450000D02*
X150805000Y-125450000D01*
%TO.C,C5*%
X143515000Y-103990000D02*
X145335000Y-103990000D01*
X145335000Y-104910000D01*
X143515000Y-104910000D01*
X143515000Y-103990000D01*
%TO.C,C2*%
X144965000Y-101340000D02*
X145885000Y-101340000D01*
X145885000Y-103160000D01*
X144965000Y-103160000D01*
X144965000Y-101340000D01*
%TO.C,R7*%
X146595000Y-104970000D02*
X148055000Y-104970000D01*
X148055000Y-107930000D01*
X146595000Y-107930000D01*
X146595000Y-104970000D01*
%TO.C,D1*%
X146070000Y-130300000D02*
X149430000Y-130300000D01*
X149430000Y-132200000D01*
X146070000Y-132200000D01*
X146070000Y-130300000D01*
%TO.C,C3*%
X148315000Y-102990000D02*
X150135000Y-102990000D01*
X150135000Y-103910000D01*
X148315000Y-103910000D01*
X148315000Y-102990000D01*
%TO.C,R8*%
X150455000Y-103020000D02*
X151395000Y-103020000D01*
X151395000Y-104880000D01*
X150455000Y-104880000D01*
X150455000Y-103020000D01*
%TO.C,R2*%
X141995000Y-111780000D02*
X143855000Y-111780000D01*
X143855000Y-112720000D01*
X141995000Y-112720000D01*
X141995000Y-111780000D01*
%TO.C,D2*%
X144625000Y-96600000D02*
X150225000Y-96600000D01*
X150225000Y-99200000D01*
X144625000Y-99200000D01*
X144625000Y-96600000D01*
%TO.C,J1*%
X138035000Y-97760000D02*
X141575000Y-97760000D01*
X138035000Y-116540000D02*
X138035000Y-97760000D01*
X141575000Y-97760000D02*
X141575000Y-116540000D01*
X141575000Y-116540000D02*
X138035000Y-116540000D01*
%TO.C,J2*%
X153275000Y-97760000D02*
X156815000Y-97760000D01*
X153275000Y-116540000D02*
X153275000Y-97760000D01*
X156815000Y-97760000D02*
X156815000Y-116540000D01*
X156815000Y-116540000D02*
X153275000Y-116540000D01*
%TO.C,R4*%
X143195000Y-104970000D02*
X144655000Y-104970000D01*
X144655000Y-107930000D01*
X143195000Y-107930000D01*
X143195000Y-104970000D01*
%TO.C,C6*%
X152215000Y-108040000D02*
X153135000Y-108040000D01*
X153135000Y-109860000D01*
X152215000Y-109860000D01*
X152215000Y-108040000D01*
%TO.C,Q1*%
X142095000Y-113550000D02*
X143125000Y-113550000D01*
X142095000Y-114660000D02*
X142095000Y-113550000D01*
X142095000Y-115440000D02*
X143125000Y-115440000D01*
X142095000Y-116550000D02*
X142095000Y-115440000D01*
X143125000Y-113350000D02*
X144925000Y-113350000D01*
X143125000Y-113550000D02*
X143125000Y-113350000D01*
X143125000Y-114660000D02*
X142095000Y-114660000D01*
X143125000Y-115440000D02*
X143125000Y-114660000D01*
X143125000Y-116550000D02*
X142095000Y-116550000D01*
X143125000Y-116750000D02*
X143125000Y-116550000D01*
X144925000Y-113350000D02*
X144925000Y-114500000D01*
X144925000Y-114500000D02*
X145955000Y-114500000D01*
X144925000Y-115600000D02*
X144925000Y-116750000D01*
X144925000Y-116750000D02*
X143125000Y-116750000D01*
X145955000Y-114500000D02*
X145955000Y-115600000D01*
X145955000Y-115600000D02*
X144925000Y-115600000D01*
%TO.C,MH2*%
X157525000Y-131250000D02*
G75*
G02*
X152325000Y-131250000I-2600000J0D01*
G01*
X152325000Y-131250000D02*
G75*
G02*
X157525000Y-131250000I2600000J0D01*
G01*
%TO.C,J3*%
X146145000Y-114150000D02*
X146245000Y-114150000D01*
X146145000Y-117850000D02*
X146145000Y-114150000D01*
X146245000Y-112550000D02*
X148195000Y-112550000D01*
X146245000Y-114150000D02*
X146245000Y-112550000D01*
X148155000Y-117600000D02*
X148155000Y-117850000D01*
X148155000Y-117850000D02*
X146145000Y-117850000D01*
X148195000Y-111450000D02*
X151055000Y-111450000D01*
X148195000Y-112550000D02*
X148195000Y-111450000D01*
X151055000Y-111450000D02*
X151055000Y-112550000D01*
X151055000Y-112550000D02*
X153005000Y-112550000D01*
X151095000Y-117600000D02*
X148155000Y-117600000D01*
X151095000Y-117850000D02*
X151095000Y-117600000D01*
X153005000Y-112550000D02*
X153005000Y-114150000D01*
X153005000Y-114150000D02*
X153105000Y-114150000D01*
X153105000Y-114150000D02*
X153105000Y-117850000D01*
X153105000Y-117850000D02*
X151095000Y-117850000D01*
%TO.C,R5*%
X147005000Y-99270000D02*
X147945000Y-99270000D01*
X147945000Y-101130000D01*
X147005000Y-101130000D01*
X147005000Y-99270000D01*
%TO.C,R11*%
X141995000Y-99900000D02*
X143855000Y-99900000D01*
X143855000Y-100840000D01*
X141995000Y-100840000D01*
X141995000Y-99900000D01*
%TO.C,R9*%
X148495000Y-104070000D02*
X149955000Y-104070000D01*
X149955000Y-107030000D01*
X148495000Y-107030000D01*
X148495000Y-104070000D01*
%TD*%
M02*
