%TF.GenerationSoftware,KiCad,Pcbnew,10.0.5*%
%TF.CreationDate,2026-07-27T21:48:54+02:00*%
%TF.ProjectId,remote_emitter,72656d6f-7465-45f6-956d-69747465722e,rev?*%
%TF.SameCoordinates,Original*%
%TF.FileFunction,Other,User*%
%FSLAX46Y46*%
G04 Gerber Fmt 4.6, Leading zero omitted, Abs format (unit mm)*
G04 Created by KiCad (PCBNEW 10.0.5) date 2026-07-27 21:48:54*
%MOMM*%
%LPD*%
G01*
G04 APERTURE LIST*
%ADD10C,0.050000*%
G04 APERTURE END LIST*
%TO.C,D1*%
D10*
X3820000Y-9550000D02*
X7180000Y-9550000D01*
X7180000Y-11450000D01*
X3820000Y-11450000D01*
X3820000Y-9550000D01*
%TO.C,J4*%
X2020000Y-200000D02*
X4030000Y-200000D01*
X2020000Y-4000000D02*
X2020000Y-200000D01*
X2120000Y-4000000D02*
X2020000Y-4000000D01*
X2120000Y-5750000D02*
X2120000Y-4000000D01*
X4030000Y-200000D02*
X4030000Y-500000D01*
X4030000Y-500000D02*
X6970000Y-500000D01*
X4070000Y-5750000D02*
X2120000Y-5750000D01*
X4070000Y-6800000D02*
X4070000Y-5750000D01*
X6930000Y-5750000D02*
X6930000Y-6800000D01*
X6930000Y-6800000D02*
X4070000Y-6800000D01*
X6970000Y-200000D02*
X8980000Y-200000D01*
X6970000Y-500000D02*
X6970000Y-200000D01*
X8880000Y-4000000D02*
X8880000Y-5750000D01*
X8880000Y-5750000D02*
X6930000Y-5750000D01*
X8980000Y-200000D02*
X8980000Y-4000000D01*
X8980000Y-4000000D02*
X8880000Y-4000000D01*
%TO.C,R1*%
X10770000Y-5520000D02*
X12230000Y-5520000D01*
X12230000Y-8480000D01*
X10770000Y-8480000D01*
X10770000Y-5520000D01*
%TD*%
M02*
