M48
; DRILL file KiCad 10.0.5 date 2026-07-31T11:09:00
; FORMAT={-:-/ absolute / metric / decimal}
; #@! TF.CreationDate,2026-07-31T11:09:00+02:00
; #@! TF.GenerationSoftware,Kicad,Pcbnew,10.0.5
; #@! TF.FileFunction,MixedPlating,1,2
FMAT,2
METRIC
; #@! TA.AperFunction,Plated,PTH,ViaDrill
T1C0.300
; #@! TA.AperFunction,Plated,PTH,ComponentDrill
T2C1.000
; #@! TA.AperFunction,Plated,PTH,ComponentDrill
T3C2.700
; #@! TA.AperFunction,NonPlated,NPTH,ComponentDrill
T4C0.500
%
G90
G05
T1
X142.5Y-113.0
X142.65Y-101.25
X143.925Y-114.95
X144.675Y-105.382
X144.925Y-108.95
X146.274Y-102.71
X146.55Y-105.698
X148.326Y-103.692
X148.392Y-102.342
X150.144Y-107.124
X151.141Y-108.95
X153.175Y-103.2
T2
X139.805Y-99.53
X139.805Y-102.07
X139.805Y-104.61
X139.805Y-107.15
X139.805Y-109.69
X139.805Y-112.23
X139.805Y-114.77
X155.045Y-99.53
X155.045Y-102.07
X155.045Y-104.61
X155.045Y-107.15
X155.045Y-109.69
X155.045Y-112.23
X155.045Y-114.77
T3
X140.0Y-131.25
X154.925Y-131.25
T4
X144.175Y-118.6
X145.675Y-118.6
X147.175Y-118.6
X148.675Y-118.6
X150.175Y-118.6
M30
