%TF.GenerationSoftware,KiCad,Pcbnew,10.0.5*%
%TF.CreationDate,2026-07-31T11:08:59+02:00*%
%TF.ProjectId,IR_Spoke_Sensor_R4_2L,49525f53-706f-46b6-955f-53656e736f72,R4*%
%TF.SameCoordinates,Original*%
%TF.FileFunction,Profile,NP*%
%FSLAX46Y46*%
G04 Gerber Fmt 4.6, Leading zero omitted, Abs format (unit mm)*
G04 Created by KiCad (PCBNEW 10.0.5) date 2026-07-31 11:08:59*
%MOMM*%
%LPD*%
G01*
G04 APERTURE LIST*
%TA.AperFunction,Profile*%
%ADD10C,0.050000*%
%TD*%
G04 APERTURE END LIST*
D10*
X136925000Y-121255000D02*
G75*
G02*
X138830000Y-119350000I1905000J0D01*
G01*
X136925000Y-132445000D02*
X136925000Y-121255000D01*
X138525000Y-98355000D02*
G75*
G02*
X140430000Y-96450000I1905000J0D01*
G01*
X138525000Y-115945000D02*
X138525000Y-98355000D01*
X138830000Y-119350000D02*
X143675000Y-119350000D01*
X138830000Y-134350000D02*
G75*
G02*
X136925000Y-132445000I0J1905000D01*
G01*
X140430000Y-96450000D02*
X154420000Y-96450000D01*
X140430000Y-117850000D02*
G75*
G02*
X138525000Y-115945000I0J1905000D01*
G01*
X143675000Y-117850000D02*
X140430000Y-117850000D01*
X143675000Y-119350000D02*
X143675000Y-117850000D01*
X151175000Y-117850000D02*
X151175000Y-119350000D01*
X151175000Y-119350000D02*
X156020000Y-119350000D01*
X154420000Y-96450000D02*
G75*
G02*
X156325000Y-98355000I0J-1905000D01*
G01*
X154420000Y-117850000D02*
X151175000Y-117850000D01*
X156020000Y-119350000D02*
G75*
G02*
X157925000Y-121255000I0J-1905000D01*
G01*
X156020000Y-134350000D02*
X138830000Y-134350000D01*
X156325000Y-98355000D02*
X156325000Y-115945000D01*
X156325000Y-115945000D02*
G75*
G02*
X154420000Y-117850000I-1905000J0D01*
G01*
X157925000Y-121255000D02*
X157925000Y-132445000D01*
X157925000Y-132445000D02*
G75*
G02*
X156020000Y-134350000I-1905000J0D01*
G01*
M02*
